<svg width="93" height="94" viewBox="0 0 93 94" fill="none" xmlns="http://www.w3.org/2000/svg">
<path d="M72.9992 35.7387V45.1705C72.9992 48.8552 70.0939 50.8277 66.2613 50.8277C62.3951 50.8277 59.4545 47.7893 59.4545 44.6191L59.4561 35.7387C59.4561 31.9914 62.9732 29.9899 66.4199 29.9851C69.7416 29.9819 72.9992 31.8274 72.9992 35.7387ZM78.7057 39.5343C78.3662 32.4495 73.5182 26.7538 66.162 26.794L53.7769 26.8631L50.8571 26.8278L50.862 27.9611C52.952 27.8904 53.7769 28.5109 53.7769 29.6459V66.4199C53.7769 67.7703 52.6878 68.2172 50.8395 68.2493V69.5177C54.8804 69.4711 58.9196 69.4888 62.9604 69.447V68.2863C60.699 68.1449 59.5746 67.6208 59.5746 66.452V50.9837C61.772 53.2439 64.9288 54.2583 67.959 53.9304C73.6799 53.3147 79.0693 47.2154 78.7057 39.5343ZM48.4387 5.77453C58.2533 6.24073 67.1614 10.2035 73.9698 16.4635L78.009 12.3802C70.1644 5.08165 59.8309 0.474243 48.4387 0V5.77453ZM76.7133 19.2334C82.9051 26.1156 86.8274 35.1198 87.2871 45.0403H93C92.5323 33.5299 87.9742 23.082 80.751 15.1533L76.7133 19.2334ZM87.2871 48.9597C86.8274 58.8802 82.9051 67.8876 76.7133 74.7666L80.751 78.8499C87.9742 70.918 92.5323 60.4734 93 48.9597H87.2871ZM73.9698 77.5381C67.163 83.8013 58.2533 87.7625 48.4387 88.2287V94C59.8309 93.529 70.1644 88.9216 78.009 81.6198L73.9698 77.5381ZM44.5629 88.2287C34.7467 87.7625 25.8354 83.7965 19.027 77.5381L14.9894 81.6198C22.8356 88.9184 33.1691 93.529 44.5629 94V88.2287ZM16.2867 74.7666C10.0933 67.8876 6.16935 58.8802 5.7129 48.9597H0C0.466065 60.4734 5.02421 70.9196 12.2474 78.8499L16.2867 74.7666ZM5.7129 45.0403C6.16935 35.1198 10.0949 26.1156 16.2867 19.2334L12.2474 15.1533C5.02742 23.082 0.466065 33.5299 0 45.0403H5.7129ZM19.027 16.4635C25.8354 10.2035 34.7467 6.24073 44.5629 5.77453V0C33.1691 0.474243 22.8356 5.08165 14.9894 12.3802L19.027 16.4635ZM41.4398 35.7387V45.1705C41.4398 48.8552 38.5345 50.8277 34.7002 50.8277C30.8356 50.8277 27.8934 47.7893 27.8934 44.6191L27.8982 35.7387C27.8982 31.9914 31.4089 29.9899 34.8588 29.9851C38.1789 29.9819 41.4398 31.8274 41.4398 35.7387ZM47.143 39.5343C46.8051 32.4495 41.9587 26.7538 34.5993 26.794L22.2174 26.8631L19.2944 26.8278L19.2993 27.9611C21.3909 27.8904 22.2174 28.5109 22.2174 29.6459V66.4199C22.2174 67.7703 21.1251 68.2172 19.28 68.2493V69.5177C23.3209 69.4711 27.3569 69.4888 31.3993 69.447V68.2863C29.1347 68.1449 28.0136 67.6208 28.0136 66.452V50.9837C30.2093 53.2439 33.3661 54.2583 36.3995 53.9304C42.1172 53.3147 47.5098 47.2154 47.143 39.5343Z" fill="white"/>
</svg>
