<svg width="75" height="80" viewBox="0 0 75 80" fill="none" xmlns="http://www.w3.org/2000/svg">
<path d="M0.25 68.2796V2.25C0.25 1.14543 1.14543 0.25 2.25 0.25H47.2382C48.224 0.25 49.2056 0.536619 49.9934 1.12931C65.4637 12.7687 50.2127 29.6721 48.75 31.6474C47.258 33.6622 36.8624 44.6948 30.355 56.7724C30.2849 56.9025 30.2288 57.0435 30.1908 57.1863C27.6097 66.8847 33.1193 71.407 36.4685 72.5748C36.6545 72.6396 36.8461 72.6667 37.0431 72.6667H56.75C60.75 72.6667 61.75 68.953 61.75 67.0962V2.25C61.75 1.14543 62.6514 0.237758 63.7513 0.338825C71.7589 1.0746 74.25 6.19931 74.25 8.85897V77.25C74.25 78.3546 73.3624 79.25 72.2578 79.25H28.9337C28.1488 79.25 27.3784 79.0769 26.7055 78.6729C18.3469 73.6538 13.7808 60.9283 26.75 46.3333C37.55 34.1795 42.25 26.0769 43.25 23.5449C54.6075 0.538727 17.6844 1.73538 13.3959 10.5492C13.2886 10.7696 13.25 11.0103 13.25 11.2554V77.1405C13.25 78.2869 12.2807 79.2144 11.1617 78.9655C5.07869 77.6126 1.54634 72.0578 0.364209 68.9308C0.28559 68.7228 0.25 68.5019 0.25 68.2796Z" fill="white" stroke="white" stroke-width="0.5" stroke-linejoin="round"/>
</svg>
