<svg width="150" height="87" viewBox="0 0 150 87" fill="none" xmlns="http://www.w3.org/2000/svg">
<g clip-path="url(#clip0_57_594)">
<rect width="150" height="87" fill="#2D2D2D"/>
<path d="M74.9647 45.4163L3.55569 88.0707C3.11989 88.3311 3.30446 89 3.81209 89H76.3018C76.4169 89 76.5285 88.9603 76.6177 88.8876L130.027 45.3568C130.385 45.0645 130.189 44.484 129.727 44.4695L99.7531 43.5305C99.2907 43.5161 99.0943 42.9355 99.4528 42.6432L150.496 1.04061C150.939 0.679606 150.528 -0.022094 149.997 0.18809L41.5914 43.0698C41.082 43.2713 41.2207 44.0272 41.7684 44.0347L74.7151 44.4871C75.2191 44.4941 75.3974 45.1579 74.9647 45.4163Z" fill="white"/>
</g>
<defs>
<clipPath id="clip0_57_594">
<rect width="150" height="87" fill="white"/>
</clipPath>
</defs>
</svg>
