<svg width="115" height="79" viewBox="0 0 115 79" fill="none" xmlns="http://www.w3.org/2000/svg">
<path d="M93.0312 11.405C93.0312 11.405 105.376 11.3268 110.828 16.9669C116.28 22.6069 116.187 28.5298 111.722 35.1565C106.646 41.6899 99.8308 47.5647 99.6428 47.7993C99.4548 48.0339 98.3734 47.894 97.9974 47.4699C97.6214 47.0473 96.4468 45.7313 97.4801 44.9326C98.5148 44.134 108.196 35.2031 107.351 29.2818C106.504 23.359 105.799 17.3429 91.6986 15.1335C91.6986 15.1335 91.8249 11.3734 93.0312 11.405Z" fill="white"/>
<path d="M0.470947 55.9295C0.612325 55.9762 7.66166 53.8149 7.66166 53.8149C7.66166 53.8149 13.5063 38.1009 40.0146 25.2536C40.0146 25.2536 41.5186 22.7779 38.0083 23.6247C34.6874 24.8159 6.36219 38.2889 0.470947 55.9295Z" fill="white"/>
<path d="M41.3922 22.4666C41.3922 22.4666 40.7049 25.1302 43.4933 24.0022C46.2803 22.8742 65.7182 14.2261 88.5026 14.7119C88.5026 14.7119 88.7853 14.6171 89.4907 13.3492C90.1946 12.0798 90.5706 11.5158 89.1614 11.5158C87.7506 11.5158 67.6509 9.52599 41.3922 22.4666Z" fill="white"/>
<path d="M73.885 0H79.9943L70.9085 15.8554L57.622 39.4173C57.622 39.4173 56.4007 41.0161 58.0296 43.585C59.7532 46.3118 67.0853 59.9412 67.0853 59.9412C67.0853 59.9412 67.6809 61.3836 68.9021 59.2208C70.1249 57.0595 103.057 0 103.057 0H108.759L75.5454 58.9079L64.2337 77.4886C64.2337 77.4886 61.758 79.7115 59.8149 77.1126C57.8732 74.5121 48.7874 58.1559 48.7874 58.1559C48.7874 58.1559 47.6895 56.4955 46.8126 58.1559C45.8726 60.1292 36.4725 76.8313 36.4725 76.8313C36.4725 76.8313 33.0899 80.8411 30.3932 76.3922C27.7928 71.8169 12.9256 46.2486 12.9256 46.2486C12.9256 46.2486 12.0322 40.4205 13.8174 37.6005C15.6042 34.7805 17.7189 31.1137 18.5656 30.4098C19.4109 29.7044 21.7617 29.8924 23.2176 32.6177C24.675 35.3445 38.3059 59.5502 38.3059 59.5502C38.3059 59.5502 39.0579 60.9594 40.4205 58.5635C41.7832 56.1661 43.9926 52.0767 43.9926 52.0767C43.9926 52.0767 45.1206 50.714 44.1806 49.21C43.2406 47.706 39.4805 44.886 41.4072 40.4672C43.3353 36.0498 47.2834 30.691 47.2834 30.691C47.2834 30.691 49.4446 29.187 51.466 31.7724C52.4527 32.9937 53.3461 36.6605 54.5673 33.9337C56.1661 30.7376 73.885 0 73.885 0Z" fill="white"/>
<path d="M0 58.3271L6.39208 56.447C6.39208 56.447 7.14409 56.071 7.23734 58.3271C7.33209 60.5831 9.30537 66.7872 16.9668 68.3845C24.6283 69.9832 32.8809 69.7772 36.6845 69.4658C40.7018 69.1365 46.0606 69.0898 46.0606 69.0898V71.2526C46.0606 71.2526 33.7457 73.3673 24.4403 73.3206C15.1349 73.274 0.469254 72.9913 0 58.3271Z" fill="white"/>
<path d="M94.472 47.252C94.472 47.252 82.879 59.6602 48.8506 68.3083V70.9403C48.8506 70.9403 79.3701 64.297 97.0424 49.3817L94.472 47.252Z" fill="white"/>
</svg>
